<svg width="200" height="400" viewBox="0 0 200 400" xmlns="http://www.w3.org/2000/svg" fill="none" stroke="black" stroke-width="2">
  <!-- Left Helix -->
  <path d="M60,0
           C80,50 80,150 60,200
           C40,250 40,350 60,400" />
  <!-- Right Helix -->
  <path d="M140,0
           C120,50 120,150 140,200
           C160,250 160,350 140,400" />
  <!-- Rungs (base pairs) -->
  <line x1="60" y1="0" x2="140" y2="0" />
  <line x1="60" y1="40" x2="140" y2="40" />
  <line x1="60" y1="80" x2="140" y2="80" />
  <line x1="60" y1="120" x2="140" y2="120" />
  <line x1="60" y1="160" x2="140" y2="160" />
  <line x1="60" y1="200" x2="140" y2="200" />
  <line x1="60" y1="240" x2="140" y2="240" />
  <line x1="60" y1="280" x2="140" y2="280" />
  <line x1="60" y1="320" x2="140" y2="320" />
  <line x1="60" y1="360" x2="140" y2="360" />
  <line x1="60" y1="400" x2="140" y2="400" />
</svg>
